<?xml version="1.0" encoding="UTF-8"?>
<svg width="19px" height="19px" viewBox="0 0 19 19" version="1.1" xmlns="http://www.w3.org/2000/svg" xmlns:xlink="http://www.w3.org/1999/xlink">
    <title>Colours/HEX #ffffff Copy 2</title>
    <defs>
        <path d="M16.5,0.254705472 C17.6045695,0.254705472 18.5,1.15013597 18.5,2.25470547 L18.5,16.2547055 C18.5,17.359275 17.6045695,18.2547055 16.5,18.2547055 L2.5,18.2547055 C1.3954305,18.2547055 0.5,17.359275 0.5,16.2547055 L0.5,2.25470547 C0.5,1.15013597 1.3954305,0.254705472 2.5,0.254705472 L16.5,0.254705472 Z M14.1270655,4.25525029 L9.44443013,4.25470547 L9.327809,4.2614332 C8.83047032,4.31919831 8.44443013,4.74186963 8.44443013,5.25470547 L8.44443013,5.25470547 L8.45115786,5.3713266 C8.50892296,5.86866528 8.93159429,6.25470547 9.44443013,6.25470547 L9.44443013,6.25470547 L11.658,6.25470547 L4.79718589,13.033921 L4.71342864,13.1276231 C4.40603508,13.518061 4.43033107,14.0854495 4.78862668,14.4481086 C5.17678026,14.8409893 5.80993364,14.8448214 6.20281434,14.4566678 L6.20281434,14.4566678 L13.093,7.64770547 L13.0939915,9.8475893 L13.1007193,9.96421042 C13.1584844,10.4615491 13.5811557,10.8475893 14.0939915,10.8475893 C14.6462763,10.8475893 15.0939915,10.399874 15.0939915,9.8475893 L15.0939915,9.8475893 L15.0937069,5.23072922 C15.0932464,5.21138043 15.0922277,5.19204183 15.0906504,5.17273964 L15.0906504,5.17273964 L15.0872638,5.13808435 C15.0860448,5.12758911 15.0846633,5.11714344 15.0830959,5.10702611 C15.0805674,5.08999655 15.0775987,5.07301921 15.0742272,5.05588776 L15.0742272,5.05588776 L15.0607344,4.99829174 C15.055674,4.97914104 15.0500359,4.96011048 15.0437954,4.94099482 L15.0343429,4.9137013 L15.0343429,4.9137013 L15.0242127,4.88700567 L15.0242127,4.88700567 L15.0021736,4.83555464 C14.99257,4.81478115 14.9822747,4.79439296 14.971695,4.77496359 C14.9647431,4.76225974 14.9574945,4.7496743 14.9496975,4.73695882 C14.9343984,4.71172728 14.9180147,4.68722643 14.9011173,4.66409941 C14.8724087,4.62496867 14.840492,4.58744606 14.805365,4.55189125 L14.805365,4.55189125 L14.852,4.60570547 L14.8043379,4.55084636 C14.7762159,4.52246042 14.7464112,4.49575172 14.7150939,4.47088375 L14.6167743,4.40196554 C14.6062954,4.39552999 14.5957232,4.38930519 14.5852261,4.38347608 C14.5630276,4.37093276 14.540302,4.35921331 14.5167584,4.34816737 C14.502921,4.34171632 14.4889657,4.33559899 14.4751759,4.3299227 C14.4527541,4.32067061 14.4299223,4.31221022 14.4068253,4.30467539 C14.3932289,4.30021058 14.3795554,4.2960448 14.3658699,4.29210804 C14.3437917,4.28588471 14.3214036,4.2804005 14.298625,4.2757562 C14.2816324,4.27222053 14.264565,4.26913009 14.2479762,4.26648812 C14.1977831,4.25873052 14.1463574,4.25470547 14.0939915,4.25470547 L14.164,4.25670547 L14.1531528,4.25644829 L14.1531528,4.25644829 L14.1270655,4.25525029 Z" id="path-1"></path>
    </defs>
    <g id="Symbols" stroke="none" stroke-width="1" fill="none" fill-rule="evenodd">
        <g id="Colours/HEX-#ffffff-Copy-2">
            <mask id="mask-2" fill="white">
                <use xlink:href="#path-1"></use>
            </mask>
            <g id="Mask"></g>
            <g id="Group" mask="url(#mask-2)">
                <g transform="translate(0.500000, 0.000000)" id="Colours/HEX-#ffffff">
                    <rect id="Rectangle-Copy-15" fill="#cc4174" x="0" y="0" width="18" height="18.5"></rect>
                </g>
            </g>
        </g>
    </g>
</svg>