<svg width="16px" height="16px" viewBox="0 0 19 20" fill="none" xmlns="http://www.w3.org/2000/svg">
<path fill-rule="evenodd" clip-rule="evenodd" d="M2.5 0.754639C1.39543 0.754639 0.5 1.65007 0.5 2.75464V16.7546C0.5 17.8592 1.39543 18.7546 2.5 18.7546H16.5C17.6046 18.7546 18.5 17.8592 18.5 16.7546V2.75464C18.5 1.65007 17.6046 0.754639 16.5 0.754639H2.5ZM11.659 6.75463H9.44446C8.93162 6.75463 8.50895 6.36859 8.45119 5.87125L8.44446 5.75463C8.44446 5.2418 8.8305 4.81912 9.32784 4.76136L9.44446 4.75463H14.094H14.094C14.3531 4.75463 14.5892 4.85318 14.7669 5.01484C14.7964 5.04168 14.8242 5.07026 14.8504 5.10042C14.9151 5.17509 14.9669 5.25702 15.0058 5.34332C15.0472 5.43502 15.0752 5.53408 15.0873 5.63801L15.0874 5.63937C15.0918 5.67749 15.094 5.71581 15.094 5.75413L15.094 5.75463V10.3475C15.094 10.8998 14.6463 11.3475 14.094 11.3475C13.5812 11.3475 13.1585 10.9615 13.1007 10.4641L13.094 10.3475L13.094 8.14832L6.20281 14.9566C5.80993 15.3447 5.17678 15.3409 4.78863 14.948C4.43033 14.5854 4.40604 14.018 4.71343 13.6275L4.79719 13.5338L11.659 6.75463Z" fill="white"/>
</svg>
