<svg xmlns="http://www.w3.org/2000/svg" width="29.265" height="29.083" viewBox="0 0 29.265 29.083">
  <path fill="#FFF" d="M18.698 2h-.905c-.2.116-.287.294-.326.517-.058.343-.145.682-.218 1.022-.054.247-.2.406-.438.498-.34.13-.682.263-1.02.4-.105.045-.205.067-.304.067-.155 0-.302-.055-.447-.163-.303-.223-.612-.438-.923-.652-.092-.063-.187-.097-.28-.097-.095 0-.186.037-.266.11-.513.485-1.023.978-1.53 1.47-.14.14-.156.325-.052.496.22.355.445.702.668 1.055.132.207.15.423.05.647-.155.354-.308.71-.467 1.064-.1.224-.266.36-.508.402-.384.068-.766.134-1.15.2-.275.047-.41.197-.414.47-.015.65-.026 1.303-.038 1.95-.005.328.104.46.427.53.382.08.762.162 1.14.245.207.043.365.174.444.357.16.37.284.748.432 1.118.1.25.07.472-.083.688-.225.31-.444.622-.664.938-.156.223-.142.418.045.61.456.48.916.956 1.375 1.434.11.11.216.168.33.168.092 0 .188-.035.294-.102.327-.207.65-.42.978-.633.118-.073.24-.112.368-.112.086 0 .174.018.262.057.367.158.736.318 1.1.482.214.096.348.264.387.502.06.356.125.714.19 1.075.07.39.18.48.567.488.637.012 1.274.027 1.912.04h.01c.238 0 .397-.126.45-.364.087-.376.167-.747.243-1.122.053-.273.202-.46.465-.56.353-.132.705-.272 1.053-.41.09-.034.178-.052.264-.052.13 0 .256.04.38.127.316.225.635.45.953.672.107.076.205.115.3.115.113 0 .224-.057.34-.166.47-.45.937-.898 1.405-1.352.213-.204.232-.392.078-.637-.202-.312-.4-.627-.607-.934-.163-.238-.18-.478-.056-.737.154-.336.296-.68.446-1.02.096-.215.256-.357.495-.397.388-.066.777-.134 1.166-.203.272-.047.405-.19.41-.47.01-.392.015-.778.022-1.17l.025-.202v-.758c-.092-.22-.262-.316-.494-.357-.338-.054-.67-.142-1.006-.208-.273-.055-.454-.21-.553-.474-.127-.343-.26-.682-.398-1.02-.1-.248-.075-.475.082-.692.218-.3.43-.603.645-.907.182-.255.168-.443-.045-.667-.453-.468-.902-.94-1.355-1.405-.107-.11-.22-.168-.336-.168-.09 0-.185.033-.285.1-.323.205-.646.414-.967.62-.123.084-.25.125-.38.125-.096 0-.193-.022-.294-.067-.345-.152-.69-.304-1.036-.45-.236-.105-.38-.276-.424-.534-.06-.373-.13-.744-.193-1.117-.05-.305-.192-.428-.506-.432-.343-.007-.684-.012-1.027-.02L18.698 2zm.114 12.015h-.01c-1.853 0-3.347-1.495-3.345-3.345.002-1.85 1.5-3.335 3.35-3.335h.003c1.84 0 3.334 1.5 3.334 3.343 0 1.835-1.5 3.337-3.332 3.337M-2.31 14.815l-1.25.563c-.208.284-.216.583-.132.915.133.51.223 1.032.333 1.55.082.374-.023.685-.294.96-.388.392-.78.787-1.16 1.187-.12.126-.242.22-.38.282-.214.096-.45.112-.72.052-.558-.12-1.12-.224-1.682-.328-.166-.03-.318-.02-.445.04-.134.06-.236.168-.3.32-.41.988-.81 1.986-1.206 2.982-.107.277-.015.544.235.716.523.357 1.05.697 1.578 1.044.31.204.472.49.472.863.004.588.014 1.175.014 1.762.002.37-.142.664-.45.87-.49.334-.978.662-1.468.993-.35.235-.443.526-.28.908.382.904.77 1.814 1.157 2.715.196.458.43.573.92.47.577-.126 1.155-.25 1.73-.37.31-.07.61.012.834.217.447.413.856.858 1.29 1.28.293.28.392.606.313 1-.117.568-.227 1.136-.334 1.71-.077.404.062.665.442.817.926.377 1.857.75 2.79 1.126.218.086.402.098.56.025.126-.055.237-.164.343-.322.327-.488.64-.983.96-1.48.12-.178.264-.306.44-.386.117-.053.25-.083.396-.084.606-.008 1.216-.018 1.82-.016.355 0 .645.147.847.453.304.458.616.91.934 1.37.335.492.544.552 1.085.322.89-.38 1.78-.756 2.668-1.135l.014-.006c.33-.15.472-.42.398-.783-.115-.572-.234-1.134-.36-1.7-.097-.41-.008-.763.294-1.062.406-.4.806-.814 1.202-1.223.104-.103.213-.18.332-.233.182-.083.38-.105.605-.062.577.114 1.157.226 1.735.334.196.04.355.033.485-.025.157-.07.274-.218.366-.44.373-.914.74-1.825 1.106-2.743.168-.414.08-.685-.287-.928-.475-.307-.945-.62-1.42-.913-.374-.23-.544-.552-.534-.986.003-.56-.014-1.125-.018-1.688 0-.356.134-.653.44-.854.494-.333.992-.67 1.487-1.007.346-.234.44-.516.275-.906-.23-.546-.465-1.083-.697-1.63l-.09-.293-.474-1.058c-.265-.248-.56-.274-.906-.188-.5.136-1.014.22-1.52.338-.414.094-.76-.01-1.06-.31-.39-.396-.785-.78-1.186-1.166-.29-.28-.397-.607-.315-1.006.114-.55.22-1.103.327-1.656.094-.465-.042-.716-.475-.894-.917-.365-1.832-.738-2.748-1.1-.21-.084-.4-.094-.56-.02-.126.056-.235.16-.335.313-.318.486-.637.975-.95 1.46-.12.193-.27.327-.448.407-.133.06-.283.09-.45.09-.572.003-1.143.01-1.714.02-.39.002-.695-.145-.917-.474-.316-.478-.64-.948-.962-1.423-.258-.388-.53-.47-.966-.282-.48.205-.954.41-1.434.613l-.3.092zM5.308 31.35l-.014.005c-2.56 1.15-5.556.013-6.7-2.545-1.147-2.555 0-5.54 2.562-6.69h.002c2.545-1.143 5.542 0 6.686 2.548 1.14 2.534-.003 5.542-2.536 6.68"/>
  <path fill="none" d="M-1.917 0h31.182v31.18H-1.917z"/>
</svg>
