<svg xmlns="http://www.w3.org/2000/svg" width="25.512" height="26.079" viewBox="0 0 25.512 26.079">
  <path fill="#FFF" d="M21.248 12.474c-.022-.617-.22-4.56-.55-5.865-.85-3.34-3.94-5.905-7.286-6.124-.24-.016-.47 0-.706 0C12.47.483 12.242.463 12 .474c-3.348.16-6.483 2.673-7.39 5.995-.353 1.3-.62 5.237-.653 5.854-.046.843.332 1.2 1.218 1.19.835-.01 1.138-.377 1.13-1.142-.013-1.235.03-2.472.026-3.71 0-.25-.022-.643-.177-.73-1.215-.665-.55-1.496-.208-2.23 1.2-2.578 3.953-4.272 6.754-4.285 2.798.062 5.522 1.804 6.677 4.402.328.74.98 1.582-.247 2.227-.157.082-.185.477-.19.728-.027 1.236-.005 2.473-.04 3.71-.02.763.276 1.135 1.11 1.16.886.027 1.27-.324 1.238-1.168"/>
  <path fill="#FFF" d="M22.012 21.695c-1.632-.8-3.377-1.383-5.042-2.125-1.095-.488-1.794-2.47-1.52-2.986.552-1.033 1.25-1.992 1.825-3.014.174-.308.21-1.954.204-2.317-.017-1.12-.084-2.243-.13-3.366-.008-.164 0-.33-.02-.493-.253-2.12-1.993-3.395-4.74-3.563C9.844 4 8.103 5.275 7.85 7.395c-.02.163-.012.33-.018.493-.047 1.123-.114 2.245-.13 3.366-.006.363.03 2.01.204 2.317.577 1.02 1.273 1.98 1.824 3.014.276.516-.424 2.498-1.52 2.986-1.664.742-3.408 1.326-5.04 2.125-2.415 1.184-2.563-.232-2.098 3.012H24.11c.464-3.245.317-1.83-2.098-3.012"/>
  <path fill="none" d="M-3-3h31.182v31.18H-3z"/>
</svg>
