<svg xmlns="http://www.w3.org/2000/svg" width="24.582" height="13.084" viewBox="0 0 24.582 13.084">
  <path fill="#FFF" d="M20.536 8.498c.035 1.44-.775 2.486-2.197 2.486-.74 0-1.28-.36-1.28-1.154 0-1.135 1.098-1.332 2.323-1.332h1.153zm.035 3.85h3.294v-1.616h-1.08V7.365c0-2.558-.88-3.69-3.6-3.69-1.98 0-3.96.396-4.104 2.81h2.248c.072-.976.648-1.37 1.586-1.37.882 0 1.62.305 1.62 1.297v.647h-.847c-2.107 0-4.877.07-4.877 2.842 0 1.8 1.367 2.7 2.932 2.7 1.28 0 2.055-.343 2.793-1.478h.035v1.225zM5.235 7.042l1.8-4.52 1.764 4.52H5.234zm-4.75 5.31h4.822v-1.71H3.832l.737-1.89h4.877l.773 1.89H8.746v1.71h5.056v-1.71h-.988L8.692.58H5.63L1.472 10.64H.484v1.71z"/>
  <path fill="none" d="M0 0h31.182v31.18H0z"/>
</svg>
