<svg xmlns="http://www.w3.org/2000/svg" width="27.182" height="27.25" viewBox="0 0 27.182 27.25">
  <path fill="#FFF" d="M17.135 15.16l-6.38.887-.702-6.66-4.407 1.003-2.152 9.645c1.923.258 3.58 1.467 4.435 3.19l9.596-4.974-.39-3.09z"/>
  <path fill="none" d="M-2-2h31.182v31.18H-2z"/>
  <path fill="#FFF" d="M11.194 8.665l.666 5.967 6.017-.835L27.784-.218l-.247-.96-9.78.404M10.51 7.984l6.482-9.22-5.045.057-5.593 8.403-.407 1.818M3.263 21.07L2.11 26.244l4.88-2.53c-.704-1.443-2.1-2.453-3.727-2.644"/>
  <path fill="none" d="M-2-2h31.182v31.18H-2z"/>
  <path fill="#FFF" d="M18.28 14.732l.425 2.908.834-.373 8.243-10.96V1.21"/>
</svg>
