<svg width="28" height="29" xmlns="http://www.w3.org/2000/svg">
  <defs>
    <filter x="-50%" y="-50%" width="200%" height="200%" filterUnits="objectBoundingBox" id="a">
      <feOffset dy="1" in="SourceAlpha" result="shadowOffsetOuter1"/>
      <feGaussianBlur stdDeviation="1.5" in="shadowOffsetOuter1" result="shadowBlurOuter1"/>
      <feColorMatrix values="0 0 0 0 0 0 0 0 0 0 0 0 0 0 0 0 0 0 0.203917572 0" in="shadowBlurOuter1" result="shadowMatrixOuter1"/>
      <feMerge>
        <feMergeNode in="shadowMatrixOuter1"/>
        <feMergeNode in="SourceGraphic"/>
      </feMerge>
    </filter>
  </defs>
  <g transform="translate(0 1)" fill="none" fill-rule="evenodd">
    <ellipse fill="#ee343f" cx="14" cy="14" rx="14" ry="14"/>
    <path d="M8.693 6.416l3.983-3.983c.21-.21.21-.55 0-.76L11.16.158c-.21-.21-.55-.21-.76 0L6.417 4.14 2.433.157c-.21-.21-.55-.21-.76 0L.158 1.675c-.21.21-.21.55 0 .758L4.14 6.417.158 10.4c-.21.21-.21.55 0 .76l1.518 1.516c.21.21.55.21.758 0l3.984-3.983 3.983 3.983c.21.21.55.21.76 0l1.516-1.517c.21-.21.21-.55 0-.76L8.693 6.416z" filter="url(#a)" transform="translate(8.167 8.167)" fill="#FFF"/>
  </g>
</svg>
