<svg xmlns="http://www.w3.org/2000/svg" viewBox="0 0 123 102"><defs/><g fill="#e30613"><path d="M82.5 90.7a39.4 39.4 0 00-8 .7 17 17 0 00-12.8 10.5A17 17 0 0049 91.4a39.4 39.4 0 00-8-.7H0V0h41a47 47 0 017.6.6C55.6 1.9 61 6.8 61.7 14c.6-7.2 6-12.1 13.2-13.4a47 47 0 017.6-.6h41v90.7zm0-82.5a38.9 38.9 0 00-7.8.7 16.6 16.6 0 00-13 11.3A16.6 16.6 0 0048.8 9a39 39 0 00-7.9-.7H8.3v74.3h32.6a45 45 0 018.4.5c7.1 1.3 11.4 5 12.4 12.6C62.8 88.1 67 84.3 74.2 83a45.1 45.1 0 018.3-.5h32.7V8.2z"/><path d="M58.5 41.5c-1.2-9-7.4-16.1-16.1-17.3a72.8 72.8 0 00-12.4-.8H17.8a34.8 34.8 0 011.3 8.3v29a35.3 35.3 0 01-1.3 8.3H30l8.5-.2a20 20 0 0015.8-8c4.3-5.8 5-12.4 4.1-19.3zM46.3 54c-3.8 6.3-10 5.7-16.3 5.6v-27c5.7 0 11.3-.8 15.4 4.3 3.4 4.2 3.8 12.2 1 17.1zM108.8 69a7.1 7.1 0 01-1.3-1 59.2 59.2 0 01-6-8L90.7 44 105 26.5a30.9 30.9 0 013.1-3.1H93.8c0 4-1 5.3-2.8 8S81.2 43.6 80 45V31.7a34.5 34.5 0 011.4-8.3H67.7a35 35 0 011.3 8.3v29a36.3 36.3 0 01-1.3 8.3h13.6a35.6 35.6 0 01-1.3-8.3V46.4l11.7 17.7c1.2 1.7 2.8 3.7 4.9 4.4a18 18 0 005.8.5h6.4z"/></g></svg>
