<svg version="1.1" id="Layer_1" xmlns="http://www.w3.org/2000/svg" xmlns:xlink="http://www.w3.org/1999/xlink" x="0px" y="0px"
	 width="22.341px" height="21.758px" viewBox="0 0 22.341 21.758" enable-background="new 0 0 22.341 21.758" xml:space="preserve">
<path fill="#FFFFFF" d="M3.286,20.447c0.39-0.656,0.79-1.24,1.095-1.87c0.247-0.51,0.378-1.07,0.556-1.608
	c0.043-0.128-0.026-0.21-0.132-0.277c-0.637-0.414-1.197-0.924-1.696-1.49c-0.946-1.074-1.606-2.305-1.925-3.713
	c-0.17-0.76-0.216-1.528-0.16-2.295c0.066-0.9,0.295-1.771,0.67-2.604c0.287-0.636,0.641-1.228,1.067-1.77
	c0.49-0.618,1.044-1.188,1.694-1.642c0.563-0.394,1.149-0.769,1.76-1.082c0.756-0.389,1.56-0.674,2.403-0.826
	C9.11,1.18,9.6,1.06,10.096,1.023c0.561-0.044,1.124-0.021,1.688-0.01c0.31,0.008,0.625,0.029,0.93,0.09
	c0.67,0.13,1.342,0.253,1.994,0.439c1.062,0.307,2.029,0.827,2.932,1.463c0.336,0.237,0.633,0.528,0.943,0.798
	c0.574,0.494,1.046,1.076,1.452,1.71c0.56,0.875,0.938,1.819,1.135,2.844c0.13,0.67,0.166,1.35,0.114,2.021
	c-0.091,1.2-0.445,2.326-1.051,3.378c-0.479,0.83-1.085,1.551-1.783,2.188c-0.595,0.54-1.261,0.994-1.978,1.373
	c-0.75,0.399-1.53,0.712-2.35,0.925c-0.517,0.133-1.051,0.223-1.58,0.275c-0.63,0.063-1.271,0.104-1.9,0.084
	c-0.628-0.023-1.25-0.141-1.876-0.21c-0.057-0.005-0.136,0.01-0.174,0.048c-0.6,0.58-1.266,1.063-2.028,1.412
	c-0.554,0.254-1.13,0.432-1.739,0.483c-0.5,0.046-1.003,0.074-1.536,0.11"/>
<path fill="none" d="M-5.44-5.867h31.184v31.181H-5.44V-5.867z"/>
</svg>
