<svg width="19" height="19" viewBox="0 0 19 19" fill="none" xmlns="http://www.w3.org/2000/svg">
<path fill-rule="evenodd" clip-rule="evenodd" d="M7 15.2C7.31666 15.4384 7.68045 15.7953 8 16.15C7.68045 16.6639 7.31666 17.0195 7 17.1H4C3.28288 17.0195 2.82957 17.4646 3 18.05C2.82957 18.5561 3.28288 19 4 19H15C15.7165 19 16.1692 18.5561 16 18.05C16.1692 17.4646 15.7165 17.0195 15 17.1H12C11.6827 17.0195 11.3189 16.6639 11 16.15C11.3189 15.7953 11.6827 15.4384 12 15.2H17C18.2756 15.4384 19 14.7285 19 14.25V1.9C19 0.709351 18.2756 0 17 0H2C0.723786 0 0 0.709351 0 1.9V14.25C0 14.7285 0.723786 15.4384 2 15.2H7ZM3 1.9H16C16.6029 1.9 17 2.27339 17 2.85V8.55C17 9.12602 16.6029 9.5 16 9.5H3C2.39773 9.5 2 9.12602 2 8.55V2.85C2 2.27339 2.39773 1.9 3 1.9ZM8.5 12.35C8.5 11.8257 8.94853 11.4 9.5 11.4C10.0515 11.4 10.5 11.8257 10.5 12.35C10.5 12.8725 10.0515 13.3 9.5 13.3C8.94853 13.3 8.5 12.8725 8.5 12.35Z" fill="black"/>
</svg>
