<svg id="Layer_1" data-name="Layer 1" xmlns="http://www.w3.org/2000/svg" width="32" height="26" viewBox="0 0 32 26"><defs><style>.cls-1{fill:#fff;}</style></defs><title>refresh</title><path class="cls-1" d="M31.76,11.95l-2-2L27.85,8a1.25,1.25,0,0,0-1.68,0l-2,2-1.93,1.92c-0.44.43-.31,0.8,0.37,0.8h2.3a9,9,0,0,1-9,9,9.19,9.19,0,0,1-6.4-2.6l-3,3a13.24,13.24,0,0,0,22.62-9.35h2.24C32,12.75,32.2,12.38,31.76,11.95Z"/><path class="cls-1" d="M9.76,14.05c0.43-.43.31-0.87-0.37-0.87H7.09A9,9,0,0,1,22.44,6.87l3-3A13.43,13.43,0,0,0,16.1,0,13.22,13.22,0,0,0,2.86,13.18H0.63c-0.68,0-.81.44-0.37,0.87L2.18,16l2,2a1.25,1.25,0,0,0,1.68,0l1.93-2Z"/></svg>