<svg width="46" height="86" viewBox="0 0 46 86" fill="none" xmlns="http://www.w3.org/2000/svg">
<path d="M2.77734 17.3751L8.50234 17.7501L8.32734 14.9001L5.65234 14.7001L5.87734 0.800098L3.05234 0.725098L2.77734 17.3751Z" fill="white"/>
<path d="M18.7736 15.2001C17.3736 15.7001 12.9736 16.0501 12.9736 14.1001C17.3736 15.2001 19.4736 13.6501 19.4736 11.5501C19.4736 9.8751 17.8486 8.0501 14.9236 8.0751C11.9986 8.1001 10.0986 10.1001 10.2486 13.5501C10.5236 19.7001 18.1736 18.0001 18.7486 17.7501L18.7736 15.2001ZM14.9736 10.5501C15.8986 10.4501 16.6736 11.0251 16.6486 11.5501C16.6236 12.0751 15.9236 12.7501 13.1736 12.4501C13.2486 11.7751 13.7236 10.7001 14.9736 10.5501Z" fill="white"/>
<path d="M23.324 17.6751L26.399 18.0001L30.524 8.8001L27.374 8.4001L25.149 14.2501L23.699 8.3001L20.624 8.4001L23.324 17.6751Z" fill="white"/>
<path d="M39.5012 15.2001C38.1012 15.7001 33.7012 16.0501 33.7012 14.1001C38.1012 15.2001 40.2012 13.6501 40.2012 11.5501C40.2012 9.8751 38.5762 8.0501 35.6512 8.0751C32.7262 8.1001 30.8262 10.1001 30.9762 13.5501C31.2512 19.7001 38.9012 18.0001 39.4762 17.7501L39.5012 15.2001ZM35.7012 10.5501C36.6262 10.4501 37.4012 11.0251 37.3762 11.5501C37.3512 12.0751 36.6512 12.7501 33.9012 12.4501C33.9762 11.7751 34.4512 10.7001 35.7012 10.5501Z" fill="white"/>
<path d="M42.084 17.4501L44.834 17.5501L45.234 1.7501L42.384 1.4501L42.084 17.4501Z" fill="white"/>
<path d="M26.7727 56.8854C26.8461 54.452 26.9226 52.1369 26.9864 49.825C27.1713 43.1164 27.3595 36.4045 27.5125 29.6927C27.5285 29.0404 27.7325 28.8485 28.3544 28.7686C32.9144 28.2026 37.468 27.5982 42.0248 27.0067C42.1269 26.9939 42.2321 27.0035 42.5 27.0035C42.2385 46.669 41.977 66.3025 41.7155 86C36.4221 86 31.2052 86 25.8448 86C26.0393 80.7367 26.2306 75.4829 26.4251 70.1717C17.7898 70.1717 9.22462 70.1717 0.5 70.1717C3.33168 55.9102 6.15059 41.7158 8.98865 27.4383C9.31391 27.5279 9.56263 27.5822 9.80179 27.6622C13.6475 28.954 17.4869 30.2651 21.3453 31.5217C22.0214 31.7424 22.1681 32.0174 22.0469 32.7017C20.6342 40.6862 19.2503 48.6803 17.86 56.6712C17.8376 56.7991 17.8344 56.9302 17.8153 57.1445C20.7873 57.0613 23.7242 56.975 26.7727 56.8854ZM35.0477 61.6691C35.0477 61.3014 35.0413 61.0648 35.0477 60.8313C35.2709 51.9355 35.4973 43.0396 35.7142 34.1438C35.7237 33.7313 35.9533 33.0502 35.3315 33.0214C34.6077 32.9894 34.8596 33.7249 34.85 34.1406C34.6172 43.0109 34.4068 51.8811 34.1867 60.7514C34.1804 61.036 34.1485 61.3174 34.1357 61.506C25.7236 61.506 17.4071 61.506 9.02053 61.506C9.10025 61.1095 9.14491 60.8729 9.19593 60.6427C11.1315 52.2712 13.0703 43.903 14.99 35.5316C15.0793 35.1479 15.4811 34.5307 14.7987 34.3996C14.1864 34.2813 14.2247 34.9784 14.129 35.3845C13.3382 38.7484 12.5761 42.1155 11.7916 45.4794C10.5671 50.7428 9.32986 56.0029 8.09897 61.263C7.89808 62.12 8.0862 62.3534 8.98226 62.4014C9.19273 62.4142 9.40638 62.4078 9.62003 62.4078C17.4582 62.4621 25.2963 62.5133 33.1344 62.5677C33.4437 62.5709 33.7562 62.5677 34.1038 62.5677C34.1198 62.8746 34.1453 63.0825 34.1421 63.2871C34.0369 68.8542 33.9221 74.4213 33.8391 79.9884C33.8328 80.353 34.0783 81.0373 34.1963 81.0341C34.8851 81.0213 34.6746 80.4105 34.6842 80.0076C34.8022 74.5205 34.901 69.0333 35.0094 63.5461C35.0158 63.2392 35.0381 62.9322 35.0541 62.5709C35.7365 62.5709 36.3232 62.6124 36.9004 62.5517C37.1268 62.5261 37.3245 62.2735 37.5382 62.1232C37.3277 61.9729 37.1268 61.7171 36.9036 61.6947C36.3264 61.6275 35.7397 61.6691 35.0477 61.6691Z" fill="white"/>
</svg>