<svg width="44" height="86" viewBox="0 0 44 86" fill="none" xmlns="http://www.w3.org/2000/svg">
<path d="M0.777344 17.3751L6.50234 17.7501L6.32734 14.9001L3.65234 14.7001L3.87734 0.800098L1.05234 0.725098L0.777344 17.3751Z" fill="white"/>
<path d="M16.7736 15.2001C15.3736 15.7001 10.9736 16.0501 10.9736 14.1001C15.3736 15.2001 17.4736 13.6501 17.4736 11.5501C17.4736 9.8751 15.8486 8.0501 12.9236 8.0751C9.99863 8.1001 8.09863 10.1001 8.24863 13.5501C8.52363 19.7001 16.1736 18.0001 16.7486 17.7501L16.7736 15.2001ZM12.9736 10.5501C13.8986 10.4501 14.6736 11.0251 14.6486 11.5501C14.6236 12.0751 13.9236 12.7501 11.1736 12.4501C11.2486 11.7751 11.7236 10.7001 12.9736 10.5501Z" fill="white"/>
<path d="M21.324 17.6751L24.399 18.0001L28.524 8.8001L25.374 8.4001L23.149 14.2501L21.699 8.3001L18.624 8.4001L21.324 17.6751Z" fill="white"/>
<path d="M37.5012 15.2001C36.1012 15.7001 31.7012 16.0501 31.7012 14.1001C36.1012 15.2001 38.2012 13.6501 38.2012 11.5501C38.2012 9.8751 36.5762 8.0501 33.6512 8.0751C30.7262 8.1001 28.8262 10.1001 28.9762 13.5501C29.2512 19.7001 36.9012 18.0001 37.4762 17.7501L37.5012 15.2001ZM33.7012 10.5501C34.6262 10.4501 35.4012 11.0251 35.3762 11.5501C35.3512 12.0751 34.6512 12.7501 31.9012 12.4501C31.9762 11.7751 32.4512 10.7001 33.7012 10.5501Z" fill="white"/>
<path d="M40.084 17.4501L42.834 17.5501L43.234 1.7501L40.384 1.4501L40.084 17.4501Z" fill="white"/>
<path d="M7.90608 45.8244C5.73964 41.3412 3.62914 36.9828 1.5 32.5828C1.68339 32.4357 1.82948 32.2918 1.99421 32.1831C8.69869 27.7991 15.9813 25.6246 23.9601 26.0531C33.6516 26.5743 40.4556 33.3694 41.3539 43.327C41.9879 50.3523 39.7842 56.4311 35.7932 61.963C33.0393 65.7811 29.7197 69.0139 25.9494 71.7575C25.7598 71.895 25.5795 72.0421 25.421 72.3651C30.7361 72.0549 36.0512 71.7479 41.4347 71.4346C41.4564 71.7895 41.4844 72.0453 41.4844 72.3043C41.4875 76.5668 41.472 80.8325 41.5 85.095C41.5031 85.7793 41.3539 86.0032 40.6452 86C28.2402 85.9776 15.8321 85.984 3.42711 85.9808C3.20021 85.9808 2.9702 85.9552 2.67181 85.9392C2.56924 84.7753 2.46045 83.6433 2.3672 82.5113C2.19625 80.4136 2.04705 78.316 1.85745 76.2215C1.8015 75.5947 1.95691 75.2398 2.54748 74.9264C8.49976 71.7575 13.9423 67.8595 18.5238 62.7848C21.2031 59.8174 23.5032 56.5813 24.7434 52.6706C25.3744 50.6816 25.5671 48.6607 25.0387 46.6206C24.2865 43.7235 22.0548 41.9328 19.1424 41.8688C15.4249 41.7889 12.0649 42.9433 8.99086 45.0537C8.65206 45.284 8.32259 45.5302 7.90608 45.8244ZM10.0508 79.5311C10.029 79.4575 10.0041 79.384 9.98239 79.3104C10.2031 79.1409 10.4207 78.9715 10.6476 78.8084C15.1421 75.5468 19.3941 71.9813 23.2825 67.9747C26.8788 64.2686 30.217 60.345 32.5606 55.6412C34.8701 51.0078 35.9362 46.2273 34.2298 41.0822C32.6757 36.3944 29.8067 33.1104 25.048 31.8729C19.9381 30.5427 15.0457 31.7418 10.2342 33.4909C10.029 33.5645 9.92333 33.929 9.77103 34.156C10.0446 34.1976 10.3429 34.3319 10.5916 34.2648C12.7176 33.7052 14.8126 32.9729 16.9635 32.5604C19.8883 31.9976 22.8381 32.0488 25.7194 32.9889C31.9794 35.0322 34.8452 42.3996 34.1334 47.8837C33.7045 51.1869 32.4985 54.1895 30.8231 57.0098C27.2114 63.0822 22.4558 68.1122 17.1158 72.5665C14.2251 74.9776 11.1542 77.1648 8.1765 79.4671C8.00244 79.6014 7.91541 79.8572 7.78797 80.0587C7.99933 80.1738 8.20448 80.3177 8.42827 80.3976C8.56503 80.4488 8.73599 80.4072 8.8914 80.4072C17.9799 80.4072 27.0684 80.4104 36.1569 80.4008C36.5578 80.4008 37.2199 80.5991 37.2075 79.9532C37.195 79.3072 36.5237 79.5471 36.1351 79.5471C27.746 79.5343 19.3568 79.5375 10.9646 79.5375C10.6569 79.5311 10.3523 79.5311 10.0508 79.5311Z" fill="white"/>
</svg>