<svg width="45" height="87" viewBox="0 0 45 87" fill="none" xmlns="http://www.w3.org/2000/svg">
<path d="M1.77734 17.3751L7.50234 17.7501L7.32734 14.9001L4.65234 14.7001L4.87734 0.800098L2.05234 0.725098L1.77734 17.3751Z" fill="white"/>
<path d="M17.7736 15.2001C16.3736 15.7001 11.9736 16.0501 11.9736 14.1001C16.3736 15.2001 18.4736 13.6501 18.4736 11.5501C18.4736 9.8751 16.8486 8.0501 13.9236 8.0751C10.9986 8.1001 9.09863 10.1001 9.24863 13.5501C9.52363 19.7001 17.1736 18.0001 17.7486 17.7501L17.7736 15.2001ZM13.9736 10.5501C14.8986 10.4501 15.6736 11.0251 15.6486 11.5501C15.6236 12.0751 14.9236 12.7501 12.1736 12.4501C12.2486 11.7751 12.7236 10.7001 13.9736 10.5501Z" fill="white"/>
<path d="M22.324 17.6751L25.399 18.0001L29.524 8.8001L26.374 8.4001L24.149 14.2501L22.699 8.3001L19.624 8.4001L22.324 17.6751Z" fill="white"/>
<path d="M38.5012 15.2001C37.1012 15.7001 32.7012 16.0501 32.7012 14.1001C37.1012 15.2001 39.2012 13.6501 39.2012 11.5501C39.2012 9.8751 37.5762 8.0501 34.6512 8.0751C31.7262 8.1001 29.8262 10.1001 29.9762 13.5501C30.2512 19.7001 37.9012 18.0001 38.4762 17.7501L38.5012 15.2001ZM34.7012 10.5501C35.6262 10.4501 36.4012 11.0251 36.3762 11.5501C36.3512 12.0751 35.6512 12.7501 32.9012 12.4501C32.9762 11.7751 33.4512 10.7001 34.7012 10.5501Z" fill="white"/>
<path d="M41.084 17.4501L43.834 17.5501L44.234 1.7501L41.384 1.4501L41.084 17.4501Z" fill="white"/>
<path d="M13.7623 62.5697C13.7623 58.7205 13.7623 54.8871 13.7623 50.9779C14.5859 50.9779 15.4096 50.9621 16.23 50.9811C18.2164 51.0253 20.1544 50.7664 21.9825 49.9896C24.0174 49.1275 25.5614 47.8108 25.7713 45.4868C26.0652 42.2565 24.1046 40.1377 20.6195 39.7714C15.823 39.2693 11.5982 40.7029 7.70284 43.3111C7.44122 43.488 7.18605 43.6743 6.80815 43.9364C5.09949 39.6419 3.42313 35.4233 1.66603 31.0089C4.0336 30.0332 6.31396 28.969 8.68153 28.1449C13.1873 26.585 17.8482 25.8208 22.6382 26.0356C27.2345 26.2408 31.6822 27.0397 35.6001 29.5974C39.6247 32.2246 41.5691 36.0169 41.9761 40.6555C42.157 42.7428 42.0568 44.8079 41.553 46.8414C40.6873 50.3338 38.8656 53.1788 35.4838 55.1113C36.0039 55.2534 36.3915 55.3545 36.7758 55.4681C40.7552 56.6459 42.9612 59.431 43.9108 63.2265C46.2784 72.709 41.3624 81.5441 31.8243 85.087C27.8417 86.5648 23.7041 87.0605 19.4696 86.9942C14.0594 86.909 8.88178 85.8954 4.15956 83.205C2.96124 82.5198 1.87598 81.6357 0.784249 80.7894C0.583991 80.6347 0.438636 80.1705 0.525846 79.9432C2.02455 75.9487 3.56202 71.9669 5.09303 67.9851C5.12856 67.8935 5.19639 67.8146 5.23192 67.7514C6.6628 68.7271 8.01615 69.7692 9.47933 70.6312C13.407 72.9395 17.6253 73.8836 22.1699 72.8637C22.9709 72.6837 23.7623 72.3553 24.4858 71.9669C26.6402 70.8112 27.7125 68.7082 27.3605 66.5136C26.9987 64.278 25.5549 62.8728 23.0226 62.336C20.1512 61.7266 17.2991 62.055 14.4567 62.5634C14.3243 62.5855 14.1919 62.6108 14.0594 62.6265C14.0045 62.6329 13.9496 62.6076 13.7623 62.5697ZM25.4709 55.1618C26.1105 54.9345 26.6434 54.764 27.1634 54.5619C30.2707 53.3399 32.8999 51.5558 34.4276 48.5244C35.5452 46.3078 35.7003 43.93 35.5065 41.5176C35.0639 35.9254 31.9664 31.8204 25.9813 30.6173C20.2965 29.4743 14.8152 30.4152 9.49549 32.5088C9.02714 32.6919 8.58463 32.9698 8.19057 33.2792C8.00646 33.4245 7.97416 33.7497 7.87403 33.9929C8.14858 33.9739 8.44574 34.0181 8.68799 33.9266C9.08528 33.775 9.42765 33.494 9.82171 33.3329C14.1628 31.5741 18.6718 30.7594 23.3714 31.1068C25.4192 31.2583 27.4121 31.713 29.2306 32.7014C32.6931 34.5834 34.2532 37.621 34.6182 41.3439C34.9961 45.2026 34.2209 48.7013 31.0394 51.3284C28.2035 53.6714 24.8152 54.6913 21.188 55.0482C20.1447 55.1524 19.0917 55.1303 18.0484 55.225C17.7868 55.2503 17.5446 55.5029 17.2959 55.6481C17.5543 55.8155 17.7997 56.087 18.0775 56.1281C18.5491 56.1976 19.0465 56.1597 19.5245 56.0965C22.7448 55.6702 25.9167 55.9134 29.0174 56.8196C32.1667 57.7385 34.8217 59.3331 36.2558 62.396C37.2248 64.4675 37.3701 66.6557 37.144 68.8819C36.6563 73.6626 34.3566 77.4076 29.2758 78.8948C22.551 80.862 16.0846 79.7663 9.80878 77.016C9.26938 76.7792 8.72352 76.5613 8.18088 76.3371C8.1292 76.4129 8.07752 76.4887 8.02584 76.5676C8.20026 76.7729 8.33592 77.0255 8.55233 77.1707C9.01421 77.4833 9.49225 77.796 10.0058 78.0138C15.3417 80.2905 20.8908 81.2662 26.6919 80.4421C33.4199 79.4853 37.3992 75.4088 38.0387 68.9292C38.6751 62.475 35.7616 58.0006 29.6214 56.1028C28.3165 55.7144 26.9632 55.4997 25.4709 55.1618Z" fill="white"/>
</svg>