<svg width="58" height="61" viewBox="0 0 58 61" fill="none" xmlns="http://www.w3.org/2000/svg">
<path d="M2.87645 24.9765L7.09628 24.905V16.215C20.1491 17.109 19.5412 -3.41795 2.80492 1.12373L2.87645 24.9765ZM6.91747 4.62834C13.3187 3.51974 14.3916 12.3528 6.98899 12.1024L6.91747 4.62834Z" fill="black"/>
<path d="M18.9662 25.0838L23.2218 24.7262L22.3993 16.6799C22.2563 15.1779 25.5463 13.9978 26.5119 15.5713L28.5502 11.566C26.8695 10.2071 24.2589 10.4932 21.9702 12.6031L21.8271 11.0296L17.8219 11.5303L18.9662 25.0838Z" fill="black"/>
<path d="M41.5769 21.0785C39.5742 21.7938 33.2802 22.2944 33.2802 19.505C39.5742 21.0785 42.5782 18.8613 42.5782 15.8574C42.5782 13.4614 40.2537 10.8508 36.0696 10.8866C31.8855 10.9223 29.1677 13.7832 29.3823 18.7183C29.7756 27.5156 40.7186 25.0838 41.5411 24.7262L41.5769 21.0785ZM36.1411 14.4269C37.4643 14.2839 38.5729 15.1064 38.5371 15.8574C38.5014 16.6084 37.5001 17.5739 33.5663 17.1448C33.6736 16.1792 34.3531 14.6415 36.1411 14.4269Z" fill="black"/>
<path d="M46.1445 19.6481H55.2279V16.0719H46.1445V19.6481Z" fill="black"/>
<path d="M0.5 59.4505L4.43374 59.5935L5.00592 36.9924L0.929136 36.5632L0.5 59.4505Z" fill="black"/>
<path d="M19.6801 56.2319C17.6774 56.9472 11.3834 57.4478 11.3834 54.6584C17.6774 56.2319 20.6814 54.0147 20.6814 51.0108C20.6814 48.6148 18.3569 46.0042 14.1728 46.04C9.98875 46.0757 7.2709 48.9366 7.48546 53.8717C7.87884 62.669 18.8218 60.2372 19.6443 59.8796L19.6801 56.2319ZM14.2443 49.5803C15.5675 49.4373 16.6761 50.2598 16.6403 51.0108C16.6046 51.7618 15.6033 52.7273 11.6695 52.2982C11.7768 51.3326 12.4563 49.7949 14.2443 49.5803Z" fill="black"/>
<path d="M26.1892 59.7723L30.5878 60.2372L36.4884 47.077L31.9825 46.5049L28.7997 54.873L26.7256 46.3618L22.3269 46.5049L26.1892 59.7723Z" fill="black"/>
<path d="M49.3298 56.2319C47.3272 56.9472 41.0332 57.4478 41.0332 54.6584C47.3271 56.2319 50.3311 54.0147 50.3311 51.0108C50.3311 48.6148 48.0066 46.0042 43.8225 46.04C39.6385 46.0757 36.9206 48.9366 37.1352 53.8717C37.5286 62.669 48.4715 60.2372 49.294 59.8796L49.3298 56.2319ZM43.8941 49.5803C45.2172 49.4373 46.3258 50.2598 46.2901 51.0108C46.2543 51.7618 45.253 52.7273 41.3193 52.2982C41.4265 51.3326 42.106 49.7949 43.8941 49.5803Z" fill="black"/>
<path d="M53.0244 59.4505L56.9581 59.5935L57.5303 36.9924L53.4535 36.5632L53.0244 59.4505Z" fill="black"/>
</svg>