<svg width="44" height="87" viewBox="0 0 44 87" fill="none" xmlns="http://www.w3.org/2000/svg">
<path d="M0.777344 17.3751L6.50234 17.7501L6.32734 14.9001L3.65234 14.7001L3.87734 0.800098L1.05234 0.725098L0.777344 17.3751Z" fill="white"/>
<path d="M16.7736 15.2001C15.3736 15.7001 10.9736 16.0501 10.9736 14.1001C15.3736 15.2001 17.4736 13.6501 17.4736 11.5501C17.4736 9.8751 15.8486 8.0501 12.9236 8.0751C9.99863 8.1001 8.09863 10.1001 8.24863 13.5501C8.52363 19.7001 16.1736 18.0001 16.7486 17.7501L16.7736 15.2001ZM12.9736 10.5501C13.8986 10.4501 14.6736 11.0251 14.6486 11.5501C14.6236 12.0751 13.9236 12.7501 11.1736 12.4501C11.2486 11.7751 11.7236 10.7001 12.9736 10.5501Z" fill="white"/>
<path d="M21.324 17.6751L24.399 18.0001L28.524 8.8001L25.374 8.4001L23.149 14.2501L21.699 8.3001L18.624 8.4001L21.324 17.6751Z" fill="white"/>
<path d="M37.5012 15.2001C36.1012 15.7001 31.7012 16.0501 31.7012 14.1001C36.1012 15.2001 38.2012 13.6501 38.2012 11.5501C38.2012 9.8751 36.5762 8.0501 33.6512 8.0751C30.7262 8.1001 28.8262 10.1001 28.9762 13.5501C29.2512 19.7001 36.9012 18.0001 37.4762 17.7501L37.5012 15.2001ZM33.7012 10.5501C34.6262 10.4501 35.4012 11.0251 35.3762 11.5501C35.3512 12.0751 34.6512 12.7501 31.9012 12.4501C31.9762 11.7751 32.4512 10.7001 33.7012 10.5501Z" fill="white"/>
<path d="M40.084 17.4501L42.834 17.5501L43.234 1.7501L40.384 1.4501L40.084 17.4501Z" fill="white"/>
<path d="M18.2398 47.1903C14.3608 49.6995 10.6667 52.0877 6.877 54.5396C5.07936 50.3204 3.30721 46.1682 1.5 41.9363C1.77092 41.7707 2.0036 41.6147 2.24902 41.4746C11.2691 36.4021 20.2924 31.3359 29.3061 26.2507C29.8193 25.9609 30.2273 25.8908 30.7564 26.2093C31.5946 26.7156 32.8026 26.9417 33.2488 27.6613C33.6919 28.3778 33.4146 29.5559 33.4114 30.5335C33.3636 49.0531 33.3094 67.5759 33.2552 86.0956C33.2552 86.3567 33.2552 86.6146 33.2552 86.9394C32.9269 86.9553 32.6688 86.9808 32.4138 86.9808C27.8177 86.984 23.2247 86.9649 18.6286 86.9999C17.8637 87.0062 17.7139 86.7579 17.7234 86.0542C17.9083 73.505 18.0709 60.9559 18.2366 48.4067C18.2462 48.0724 18.2398 47.738 18.2398 47.1903ZM26.1858 35.1443C26.4854 35.9372 26.9666 36.6122 26.9539 37.2777C26.6957 51.8107 26.3802 66.3404 26.0774 80.8702C26.071 81.1345 26.0423 81.4083 26.1029 81.6631C26.1348 81.8064 26.3515 82.0293 26.4376 82.0102C26.6033 81.9719 26.7786 81.8127 26.871 81.6567C26.9443 81.5357 26.8997 81.3478 26.9029 81.1886C27.2184 66.5793 27.5181 51.9667 27.875 37.3605C27.9005 36.3193 27.5021 35.6124 26.8838 34.9278C26.4089 34.4024 25.9276 34.2654 25.2296 34.7144C19.8494 38.1662 14.4373 41.5765 9.038 44.9996C8.90413 45.0855 8.73202 45.1492 8.65233 45.2734C8.55034 45.4294 8.52165 45.6332 8.4611 45.8147C8.67146 45.8657 8.89457 45.9867 9.08581 45.9485C9.30573 45.9071 9.50335 45.7319 9.70415 45.6014C12.8405 43.6112 15.9736 41.6147 19.1099 39.6245C21.3888 38.1789 23.6741 36.7364 26.1858 35.1443Z" fill="white"/>
</svg>